<?xml version="1.0" encoding="utf-8"?>
<!-- Generator: Adobe Illustrator 18.1.0, SVG Export Plug-In . SVG Version: 6.00 Build 0)  -->
<svg version="1.1" id="Layer_1" xmlns="http://www.w3.org/2000/svg" xmlns:xlink="http://www.w3.org/1999/xlink" x="0px" y="0px"
	 viewBox="0 0 442 153" enable-background="new 0 0 442 153" xml:space="preserve">
<g>
	<defs>
		<rect id="SVGID_1_" x="-47" y="-54.8" width="483.1" height="273.8"/>
	</defs>
	<clipPath id="SVGID_2_">
		<use xlink:href="#SVGID_1_"  overflow="visible"/>
	</clipPath>
	<path clip-path="url(#SVGID_2_)" d="M23.6,13.3l-0.4,33.6L6.1,44.6c0,0,2.8,76.3,73.5,98.4c0,0,74-38.7,67.4-93.9l-5.9,0.2l-6.9-36
		H23.6z"/>
	<path clip-path="url(#SVGID_2_)" fill="#003976" d="M201.8,63.4c0,4.1,0,7.4,0.2,9.2c0.1,1.2,0.4,2.2,1.7,2.3
		c0.6,0.1,1.6,0.2,2,0.2l0.4,0.2c0,0.2-0.2,0.3-0.7,0.3c-2.4,0-5.1-0.1-5.3-0.1c-0.2,0-2.9,0.1-4.2,0.1c-0.5,0-0.7-0.1-0.7-0.3
		l0.3-0.2c0.4,0,0.9-0.1,1.3-0.2c0.9-0.2,1.1-1.1,1.3-2.3c0.2-1.8,0.2-5.1,0.2-9.2V59l-0.2-0.3h-18.4l-0.3,0.3v4.5
		c0,4.1,0,7.4,0.2,9.2c0.1,1.2,0.4,2.2,1.7,2.3c0.6,0.1,1.6,0.2,1.9,0.2l0.4,0.2c0,0.2-0.2,0.3-0.7,0.3c-2.4,0-5.1-0.1-5.3-0.1
		c-0.2,0-2.9,0.1-4.2,0.1c-0.5,0-0.7-0.1-0.7-0.3l0.3-0.2c0.4,0,0.9-0.1,1.3-0.2c0.9-0.2,1.1-1.1,1.3-2.3c0.2-1.8,0.2-5.1,0.2-9.2
		V56c0-6.6,0-7.8-0.1-9.2c-0.1-1.4-0.4-2.1-1.9-2.4c-0.3-0.1-1.1-0.1-1.5-0.1l-0.3-0.3c0-0.3,0.2-0.3,0.7-0.3c2,0,4.7,0.1,4.9,0.1
		c0.2,0,2.9-0.1,4.3-0.1c0.5,0,0.7,0.1,0.7,0.3l-0.3,0.3c-0.3,0-0.6,0-1.1,0.1c-1.2,0.2-1.5,0.9-1.6,2.4c-0.1,1.3-0.1,2.6-0.1,9.2
		v0.9l0.3,0.3h18.4l0.2-0.3V56c0-6.6,0-7.8-0.1-9.2c-0.1-1.4-0.4-2.1-1.9-2.4c-0.3-0.1-1.1-0.1-1.5-0.1l-0.4-0.3
		c0-0.3,0.2-0.3,0.7-0.3c1.9,0,4.7,0.1,4.9,0.1c0.2,0,2.9-0.1,4.2-0.1c0.5,0,0.7,0.1,0.7,0.3l-0.3,0.3c-0.3,0-0.6,0-1.1,0.1
		c-1.2,0.2-1.5,0.9-1.6,2.4c-0.1,1.3-0.1,2.6-0.1,9.2V63.4z"/>
	<path clip-path="url(#SVGID_2_)" fill="#003976" d="M227.2,74.7c3.4,0,10.3-1.8,10.3-12.2c0-8.7-5.4-13.2-11.4-13.2
		c-6.4,0-11,3.9-11,11.8C215.1,69.5,220.3,74.7,227.2,74.7 M226.3,47.9c8.6,0,15.1,5.1,15.1,13.6c0,8.1-6.1,14.7-15.3,14.7
		c-10.4,0-14.9-7.7-14.9-14.2C211.2,56.2,215.8,47.9,226.3,47.9"/>
	<path clip-path="url(#SVGID_2_)" fill="#003976" d="M252.8,65.4c0,5.3,0.1,7.5,0.8,8.1c0.6,0.6,2.1,0.9,5.1,0.9c2,0,3.7,0,4.6-1.1
		c0.5-0.6,0.8-1.3,0.9-2l0.4-0.5c0.2,0,0.3,0.2,0.3,0.5c0,0.4-0.3,2.5-0.6,3.6c-0.3,0.9-0.4,1-2.4,1c-2.7,0-4.8,0-6.6-0.1
		c-1.7,0-3-0.1-4.2-0.1c-0.2,0-0.8,0-1.6,0.1c-0.8,0-1.6,0.1-2.2,0.1c-0.4,0-0.6-0.1-0.6-0.3l0.3-0.3c0.3,0,0.8-0.1,1.2-0.2
		c0.7-0.2,0.8-0.8,1-1.9c0.2-1.5,0.2-4.3,0.2-7.8v-6.4c0-5.6,0-6.6-0.1-7.8c-0.1-1.2-0.3-1.8-1.6-2c-0.3,0-1-0.1-1.3-0.1l-0.3-0.3
		c0-0.2,0.2-0.3,0.6-0.3c1.7,0,4.1,0.1,4.3,0.1c0.2,0,3-0.1,4.2-0.1c0.4,0,0.6,0.1,0.6,0.3l-0.3,0.3c-0.3,0-0.8,0-1.3,0.1
		c-1.1,0.2-1.3,0.8-1.4,2c0,1.2,0,2.2,0,7.8V65.4z"/>
	<path clip-path="url(#SVGID_2_)" fill="#003976" d="M276,65.4c0,5.3,0.1,7.5,0.8,8.1c0.6,0.6,2.1,0.9,5.1,0.9c2,0,3.7,0,4.6-1.1
		c0.5-0.6,0.8-1.3,0.9-2l0.4-0.5c0.2,0,0.3,0.2,0.3,0.5c0,0.4-0.3,2.5-0.6,3.6c-0.3,0.9-0.4,1-2.4,1c-2.7,0-4.9,0-6.6-0.1
		c-1.7,0-3-0.1-4.2-0.1c-0.2,0-0.8,0-1.6,0.1c-0.8,0-1.6,0.1-2.2,0.1c-0.4,0-0.6-0.1-0.6-0.3l0.3-0.3c0.3,0,0.8-0.1,1.2-0.2
		c0.7-0.2,0.8-0.8,1-1.9c0.2-1.5,0.2-4.3,0.2-7.8v-6.4c0-5.6,0-6.6-0.1-7.8c-0.1-1.2-0.3-1.8-1.5-2c-0.3,0-1-0.1-1.3-0.1l-0.3-0.3
		c0-0.2,0.2-0.3,0.6-0.3c1.7,0,4.1,0.1,4.3,0.1c0.2,0,3-0.1,4.2-0.1c0.4,0,0.6,0.1,0.6,0.3l-0.3,0.3c-0.3,0-0.8,0-1.3,0.1
		c-1.1,0.2-1.4,0.8-1.4,2c0,1.2,0,2.2,0,7.8V65.4z"/>
	<path clip-path="url(#SVGID_2_)" fill="#003976" d="M298.7,66.4c0-2-0.3-2.7-0.8-3.7c-0.3-0.6-5.5-8.6-6.8-10.5
		c-0.9-1.4-1.8-2.2-2.5-2.6c-0.6-0.3-1.3-0.5-1.6-0.5l-0.4-0.3c0-0.2,0.1-0.3,0.5-0.3c0.7,0,3.6,0.1,3.8,0.1c0.3,0,1.8-0.1,3.3-0.1
		c0.4,0,0.5,0.1,0.5,0.3c0,0.1-0.3,0.3-0.6,0.4l-0.5,0.6c0,0.5,0.3,0.9,0.5,1.4l6.9,11.3c0.8-1.5,5.6-9.3,6.2-10.4
		c0.5-0.8,0.6-1.4,0.6-1.9c0-0.5-0.2-0.8-0.6-0.9c-0.3-0.1-0.6-0.2-0.6-0.4c0-0.1,0.2-0.2,0.6-0.2c1,0,2.4,0.1,2.6,0.1
		c0.3,0,3-0.1,3.7-0.1l0.5,0.2l-0.5,0.4c-0.4,0-1.2,0.1-1.8,0.5c-0.7,0.4-1.1,0.8-1.9,1.8c-1.2,1.4-6.6,9.9-7.4,11.5
		c-0.7,1.3-0.5,2.4-0.5,3.6v3.1c0,0.6,0,2.1,0.1,3.6c0.1,1.1,0.3,1.7,1.5,1.9c0.5,0.1,1.4,0.2,1.7,0.2l0.3,0.3
		c0,0.2-0.2,0.3-0.6,0.3c-2.1,0-4.6-0.1-4.8-0.1c-0.2,0-2.6,0.1-3.7,0.1c-0.4,0-0.6-0.1-0.6-0.3l0.3-0.3c0.3,0,0.8-0.1,1.1-0.2
		c0.8-0.2,1-0.8,1.1-1.9c0.1-1.5,0.1-3,0.1-3.6V66.4z"/>
	<path clip-path="url(#SVGID_2_)" fill="#003976" d="M322.6,63.7c0,2.8,0,7.1,0,7.7c0.1,1.7,0.1,2.2,1.3,2.7c1,0.5,2.6,0.5,3.3,0.5
		c2.5,0,5.6-0.9,5.6-5.6c0-1.6-0.6-4.7-3.6-6.6c-1.3-0.8-2.5-0.8-3.4-0.9c-0.5-0.1-2.4-0.1-3-0.1l-0.2,0.3V63.7z M322.6,59.7
		l0.3,0.4c0.2,0,0.9,0.2,2.3,0.2c2.1,0,2.9-0.1,3.7-0.9c0.8-0.9,1.5-2.1,1.5-3.9c0-2.8-1.6-5.8-5.4-5.8c-0.4,0-1.3,0-2,0.2
		c-0.4,0.1-0.5,0.2-0.5,0.4V59.7z M319.3,58.9c0-5.6,0-6.6-0.1-7.8c-0.1-1.2-0.3-1.9-1.6-2.1c-0.3,0-1-0.1-1.3-0.1l-0.3-0.2
		c0-0.2,0.2-0.3,0.6-0.3c1.7,0,4.2,0.1,4.4,0.1c0.9,0,2.7-0.1,4.5-0.1c6.4,0,8,3.6,8,5.5c0,2.8-1.9,4.6-3.9,6.3
		c2.9,0.8,6.7,3.4,6.7,7.5c0,4-3.1,8-9.6,8c-0.7,0-2.1-0.1-3.3-0.1c-1.2,0-2.3-0.1-2.5-0.1c-0.1,0-0.8,0-1.6,0
		c-0.8,0-1.7,0.1-2.3,0.1c-0.4,0-0.6-0.1-0.6-0.3l0.3-0.2c0.3,0,0.8-0.1,1.2-0.2c0.7-0.1,0.8-0.9,1-2c0.2-1.5,0.2-4.3,0.2-7.8V58.9z
		"/>
	<path clip-path="url(#SVGID_2_)" fill="#003976" d="M343.9,58.9c0-5.6,0-6.6-0.1-7.8c-0.1-1.1-0.3-1.8-1.6-2c-0.3,0-1-0.1-1.3-0.1
		l-0.3-0.3c0-0.2,0.2-0.3,0.6-0.3c1.7,0,4,0.1,4.4,0.1c0.3,0,2.7-0.1,3.9-0.1c0.4,0,0.6,0.1,0.6,0.3l-0.3,0.3c-0.3,0-0.5,0-1,0.1
		c-1,0.2-1.2,0.8-1.3,2c-0.1,1.1-0.1,2.2-0.1,7.8V64c0,5.2,1.2,7.4,2.8,8.8c1.9,1.7,3.5,2,5.7,2c2.3,0,4.6-1,5.9-2.5
		c1.8-2.1,2.2-5.1,2.2-8.8v-4.5c0-5.6,0-6.6-0.1-7.8c0-1.1-0.3-1.8-1.5-2c-0.3,0-0.9-0.1-1.3-0.1l-0.3-0.3c0-0.2,0.2-0.3,0.6-0.3
		c1.7,0,3.9,0.1,4.1,0.1c0.2,0,2.1-0.1,3.2-0.1c0.4,0,0.6,0.1,0.6,0.3l-0.3,0.3c-0.3,0-0.5,0-0.9,0.1c-1,0.2-1.3,0.8-1.3,2
		c-0.1,1.1,0,2.2,0,7.8v3.9c0,3.9-0.5,8.3-3.6,10.8c-2.8,2.3-5.7,2.6-8,2.6c-1.3,0-5.3-0.1-7.9-2.5c-1.9-1.7-3.3-4.2-3.3-9.5V58.9z"
		/>
	<path clip-path="url(#SVGID_2_)" fill="#003976" d="M380.9,62l0.3,0.5c0.6,0.3,2.5,0.5,4.2,0.5c0.9,0,2,0,2.9-0.6
		c1.3-0.8,2.3-2.8,2.3-5.5c0-4.5-2.5-7.1-6.6-7.1c-1.1,0-2.3,0.1-2.7,0.2l-0.3,0.4V62z M377.6,58.9c0-5.6,0-6.6-0.1-7.8
		c-0.1-1.2-0.3-1.8-1.6-2c-0.3,0-1-0.1-1.3-0.1l-0.3-0.3c0-0.2,0.2-0.3,0.6-0.3c1.7,0,4.3,0.1,4.5,0.1c0.4,0,3.6-0.1,4.8-0.1
		c2.4,0,5.1,0.2,7.1,1.6c1,0.7,2.6,2.4,2.6,4.9c0,2.7-1.1,5.3-4.7,8.2c3.1,3.8,5.8,7.1,8,9.4c2,2,3.3,2.4,4.2,2.5
		c0.7,0.1,1.1,0.1,1.3,0.1l0.3,0.3c0,0.2-0.2,0.3-0.9,0.3h-2.4c-2.2,0-3.1-0.2-4.1-0.7c-1.6-0.8-3-2.6-5.2-5.3
		c-1.6-2-3.3-4.3-4.1-5.3l-0.5-0.2l-4.9-0.1l-0.3,0.3v0.8c0,3.5,0,6.3,0.2,7.8c0.1,1.1,0.3,1.7,1.5,1.9c0.5,0.1,1.3,0.2,1.7,0.2
		l0.3,0.3c0,0.2-0.2,0.3-0.6,0.3c-2.1,0-4.5-0.1-4.7-0.1c0,0-2.6,0.1-3.8,0.1c-0.4,0-0.6-0.1-0.6-0.3l0.3-0.3c0.3,0,0.8-0.1,1.2-0.2
		c0.7-0.2,0.8-0.8,1-1.9c0.2-1.5,0.2-4.3,0.2-7.8V58.9z"/>
	<path clip-path="url(#SVGID_2_)" fill="#003976" d="M408.3,70.8c0.1,3,0.4,3.9,1.5,4.1c0.7,0.2,1.6,0.2,1.9,0.2l0.3,0.3
		c0,0.2-0.3,0.3-0.7,0.3c-2.2,0-3.7-0.1-4-0.1c-0.4,0-1.9,0.1-3.7,0.1c-0.4,0-0.6,0-0.6-0.3l0.3-0.3c0.3,0,1,0,1.6-0.2
		c1-0.3,1.1-1.2,1.1-4.5V49.8c0-1.4,0.2-1.8,0.5-1.8c0.4,0,1.1,0.7,1.5,1.1c0.6,0.6,6.2,6.4,12.1,12.3c3.8,3.8,7.8,8.1,9,9.3
		l-0.4-18.1c0-2.3-0.3-3.1-1.4-3.4c-0.7-0.1-1.6-0.2-1.9-0.2l-0.3-0.3c0-0.2,0.3-0.3,0.7-0.3c1.7,0,3.5,0.1,4,0.1
		c0.4,0,1.7-0.1,3.2-0.1c0.4,0,0.7,0,0.7,0.3l-0.4,0.3c-0.2,0-0.5,0-0.9,0.1c-1.3,0.3-1.3,1-1.3,3.1l-0.1,21.2c0,2.4,0,2.6-0.3,2.6
		c-0.4,0-0.8-0.3-2.9-2.2c-0.4-0.3-5.9-5.6-9.9-9.8c-4.4-4.5-8.7-9-9.9-10.2L408.3,70.8z"/>
	<path clip-path="url(#SVGID_2_)" fill="#003976" d="M173.9,96.9c0-3.9,0-4.6-0.1-5.4c0-0.8-0.3-1.3-1.1-1.4l-0.9-0.1l-0.2-0.2
		l0.4-0.2c1.1,0,2.7,0.1,2.9,0.1c0.6,0,2-0.1,3.2-0.1c3.2,0,4.4,1.1,4.8,1.4c0.6,0.5,1.3,1.7,1.3,3c0,3.6-2.7,6-6.3,6l-0.5,0
		l-0.3-0.2c0-0.2,0.2-0.2,0.7-0.2c2.5,0,4.4-1.8,4.4-4.1c0-0.8-0.1-2.5-1.4-3.9c-1.4-1.4-2.9-1.3-3.5-1.3c-0.4,0-0.9,0-1.1,0.1
		L176,91v10.3c0,2.4,0,4.4,0.1,5.4c0.1,0.7,0.2,1.3,1,1.4c0.4,0.1,0.9,0.1,1.2,0.1l0.2,0.1l-0.4,0.2c-1.4,0-3-0.1-3.1-0.1
		c-0.1,0-1.7,0.1-2.5,0.1l-0.4-0.2l0.2-0.1l0.8-0.1c0.5-0.1,0.6-0.7,0.7-1.4c0.1-1,0.1-3,0.1-5.4V96.9z"/>
	<path clip-path="url(#SVGID_2_)" fill="#003976" d="M191.2,100.4l0.2,0.3c0.3,0.2,1.5,0.3,2.5,0.3c0.5,0,1.2,0,1.7-0.4
		c0.8-0.5,1.4-1.6,1.4-3.3c0-2.7-1.5-4.2-3.9-4.2c-0.7,0-1.4,0.1-1.6,0.1l-0.2,0.3V100.4z M189.3,98.6c0-3.3,0-3.9-0.1-4.6
		c0-0.7-0.2-1.1-0.9-1.2l-0.8,0l-0.2-0.2l0.4-0.2c1,0,2.5,0.1,2.7,0.1c0.2,0,2.1-0.1,2.8-0.1c1.4,0,3,0.1,4.2,0.9
		c0.6,0.4,1.6,1.4,1.6,2.9c0,1.6-0.7,3.1-2.8,4.9c1.8,2.3,3.4,4.2,4.7,5.5c1.2,1.2,1.9,1.4,2.5,1.5c0.4,0.1,0.7,0.1,0.8,0.1l0.2,0.2
		c0,0.1-0.1,0.2-0.5,0.2h-1.4c-1.3,0-1.8-0.1-2.4-0.4c-1-0.5-1.8-1.5-3.1-3.1c-0.9-1.2-1.9-2.5-2.4-3.1l-0.3-0.1l-2.9,0l-0.2,0.2
		v0.5c0,2.1,0,3.7,0.1,4.6c0.1,0.6,0.2,1,0.9,1.1l1,0.1l0.2,0.2l-0.4,0.2c-1.2,0-2.7-0.1-2.8-0.1c0,0-1.5,0.1-2.2,0.1l-0.3-0.2
		l0.2-0.2l0.7-0.1c0.4-0.1,0.5-0.5,0.6-1.1c0.1-0.9,0.1-2.6,0.1-4.6V98.6z"/>
	<path clip-path="url(#SVGID_2_)" fill="#003976" d="M213.7,108c2,0,6.1-1.1,6.1-7.2c0-5.1-3.2-7.8-6.7-7.8c-3.8,0-6.5,2.3-6.5,6.9
		C206.6,104.9,209.6,108,213.7,108 M213.2,92.2c5.1,0,8.9,3,8.9,8c0,4.8-3.6,8.7-9,8.7c-6.2,0-8.8-4.5-8.8-8.4
		C204.3,97,207,92.2,213.2,92.2"/>
	<path clip-path="url(#SVGID_2_)" fill="#003976" d="M226.8,98.6c0-3.3,0-3.9,0-4.6c-0.1-0.7-0.2-1.1-0.9-1.2l-0.8,0l-0.2-0.2
		l0.4-0.2c1,0,2.4,0.1,2.6,0.1c0.5,0,2.2-0.1,3.2-0.1c2.9,0,3.9,0.9,4.3,1.2c0.5,0.4,1.1,1.4,1.1,2.6c0,3.1-2.4,5.1-5.8,5.1l-0.6,0
		l-0.2-0.2c0-0.2,0.1-0.2,0.6-0.2c2.4,0,4.2-1.5,4.2-3.4c0-0.7-0.1-2.1-1.3-3.2c-1.2-1.2-2.5-1-3-1c-0.4,0-1,0.1-1.3,0.2l-0.2,0.4
		v8.7c0,2.1,0,3.7,0.1,4.6c0.1,0.6,0.2,1,0.9,1.1l1,0.1l0.2,0.2l-0.4,0.2c-1.2,0-2.7-0.1-2.8-0.1c-0.1,0-1.5,0.1-2.2,0.1l-0.4-0.2
		l0.2-0.2l0.7-0.1c0.4-0.1,0.5-0.5,0.6-1.1c0.1-0.9,0.1-2.6,0.1-4.6V98.6z"/>
	<path clip-path="url(#SVGID_2_)" fill="#003976" d="M241.4,98.6c0-3.3,0-3.9-0.1-4.6c0-0.7-0.2-1.1-0.9-1.2l-0.8,0l-0.2-0.2
		l0.4-0.2c1,0,2.5,0.1,2.6,0.1c0.1,0,4.9,0,5.4,0c0.4,0,0.8-0.1,1-0.1l0.3-0.1l0.1,0.2c0,0.2-0.1,0.4-0.2,1l-0.1,1.4l-0.2,0.2
		l-0.2-0.3l-0.1-0.8c-0.1-0.3-0.4-0.5-1.6-0.6c-0.4,0-3-0.1-3.3-0.1l-0.1,0.2v5.8l0.1,0.2c0.3,0,3.3,0,3.8,0
		c0.5-0.1,0.9-0.1,1.1-0.3l0.3-0.3l0.1,0.2c0,0.1-0.1,0.5-0.2,1.2c-0.1,0.4-0.1,1.2-0.1,1.4l-0.2,0.4l-0.2-0.2l-0.1-0.7
		c-0.1-0.3-0.3-0.5-1.1-0.6c-0.6-0.1-3-0.1-3.4-0.1l-0.2,0.2v1.8c0,0.7,0,3.2,0,3.6c0,1.4,0.5,1.7,2.7,1.7c0.6,0,1.7,0,2.3-0.2
		c0.6-0.2,0.9-0.6,1-1.5l0.2-0.3l0.1,0.3c0,0.1-0.2,1.6-0.3,2c-0.1,0.6-0.4,0.6-1.2,0.6c-1.7,0-3-0.1-3.9-0.1
		c-0.9-0.1-1.5-0.1-1.9-0.1c-0.1,0-0.5,0-1,0c-0.4,0-0.9,0-1.3,0l-0.4-0.2l0.2-0.2l0.7-0.1c0.4-0.1,0.5-0.5,0.6-1.1
		c0.1-0.9,0.1-2.6,0.1-4.6V98.6z"/>
	<path clip-path="url(#SVGID_2_)" fill="#003976" d="M257.5,100.4l0.1,0.3c0.3,0.2,1.5,0.3,2.5,0.3c0.5,0,1.1,0,1.7-0.4
		c0.8-0.5,1.3-1.6,1.3-3.3c0-2.7-1.5-4.2-3.9-4.2c-0.7,0-1.4,0.1-1.6,0.1l-0.2,0.3V100.4z M255.5,98.6c0-3.3,0-3.9-0.1-4.6
		c0-0.7-0.2-1.1-0.9-1.2l-0.8,0l-0.2-0.2l0.4-0.2c1,0,2.5,0.1,2.7,0.1c0.2,0,2.1-0.1,2.8-0.1c1.4,0,3,0.1,4.2,0.9
		c0.6,0.4,1.6,1.4,1.6,2.9c0,1.6-0.7,3.1-2.8,4.9c1.8,2.3,3.4,4.2,4.7,5.5c1.2,1.2,1.9,1.4,2.5,1.5c0.4,0.1,0.7,0.1,0.8,0.1l0.2,0.2
		c0,0.1-0.1,0.2-0.5,0.2h-1.4c-1.3,0-1.8-0.1-2.4-0.4c-1-0.5-1.8-1.5-3.1-3.1c-0.9-1.2-1.9-2.5-2.4-3.1l-0.3-0.1l-2.9,0l-0.1,0.2
		v0.5c0,2.1,0,3.7,0.1,4.6c0.1,0.6,0.2,1,0.9,1.1l1,0.1l0.2,0.2l-0.4,0.2c-1.2,0-2.7-0.1-2.8-0.1c0,0-1.5,0.1-2.2,0.1l-0.4-0.2
		l0.2-0.2l0.7-0.1c0.4-0.1,0.5-0.5,0.6-1.1c0.1-0.9,0.1-2.6,0.1-4.6V98.6z"/>
	<path clip-path="url(#SVGID_2_)" fill="#003976" d="M276.5,102.4c0,2.1,0,3.7,0.1,4.6c0.1,0.6,0.2,1,0.9,1.1l1,0.1l0.2,0.2
		l-0.4,0.2c-1.2,0-2.7-0.1-2.8-0.1c-0.1,0-1.7,0.1-2.3,0.1l-0.4-0.2l0.2-0.1l0.7-0.1c0.5-0.1,0.6-0.5,0.7-1.2
		c0.1-0.9,0.1-2.6,0.1-4.6v-9l-3.2,0c-1.4,0-2,0.2-2.3,0.7c-0.3,0.4-0.3,0.5-0.4,0.7l-0.2,0.2l-0.1-0.2l0.5-2.3l0.2-0.4
		c0.2,0,0.4,0.2,1,0.2c0.6,0.1,1.5,0.1,1.8,0.1h8.5c0.7,0,1.2-0.1,1.6-0.1c0.3,0,0.5-0.1,0.6-0.1l0.1,0.2c0,0.7-0.1,2.2-0.1,2.4
		l-0.2,0.3l-0.2-0.4l0-0.2c-0.1-0.6-0.6-1.1-2.7-1.2l-2.8,0V102.4z"/>
	<path clip-path="url(#SVGID_2_)" fill="#003976" d="M289.2,102.4c0,2.1,0,3.7,0.1,4.6c0.1,0.6,0.1,1,0.8,1.1c0.3,0.1,0.8,0.1,1,0.1
		l0.2,0.2l-0.4,0.2c-1.2,0-2.7-0.1-2.8-0.1c-0.1,0-1.5,0.1-2.2,0.1l-0.4-0.2l0.2-0.2l0.7-0.1c0.4-0.1,0.5-0.5,0.6-1.1
		c0.1-0.9,0.1-2.6,0.1-4.6v-3.8c0-3.3,0-3.9,0-4.6c-0.1-0.7-0.2-1.1-0.7-1.2l-0.7-0.1l-0.2-0.2l0.4-0.2c0.7,0,2.1,0.1,2.3,0.1
		c0.1,0,1.6-0.1,2.3-0.1l0.4,0.2l-0.2,0.2l-0.6,0.1c-0.6,0.1-0.8,0.4-0.8,1.2c0,0.7,0,1.3,0,4.6V102.4z"/>
	<path clip-path="url(#SVGID_2_)" fill="#003976" d="M296.6,98.6c0-3.3,0-3.9,0-4.6c-0.1-0.7-0.2-1.1-0.9-1.2l-0.8,0l-0.2-0.2
		l0.4-0.2c1,0,2.5,0.1,2.6,0.1c0.1,0,4.9,0,5.4,0c0.4,0,0.8-0.1,1-0.1l0.3-0.1l0.1,0.2c0,0.2-0.1,0.4-0.2,1l-0.1,1.4l-0.2,0.2
		l-0.2-0.3l-0.1-0.8c-0.2-0.3-0.4-0.5-1.6-0.6c-0.4,0-3-0.1-3.2-0.1l-0.1,0.2v5.8l0.1,0.2c0.3,0,3.2,0,3.8,0
		c0.5-0.1,0.9-0.1,1.1-0.3L304,99l0.1,0.2c0,0.1-0.1,0.5-0.2,1.2c0,0.4-0.1,1.2-0.1,1.4l-0.2,0.4l-0.1-0.2l-0.1-0.7
		c-0.1-0.3-0.3-0.5-1.2-0.6c-0.6-0.1-3-0.1-3.4-0.1l-0.1,0.2v1.8c0,0.7,0,3.2,0,3.6c0,1.4,0.4,1.7,2.7,1.7c0.6,0,1.7,0,2.2-0.2
		c0.6-0.2,0.9-0.6,1-1.5l0.2-0.3l0.1,0.3c0,0.1-0.2,1.6-0.3,2c-0.2,0.6-0.4,0.6-1.3,0.6c-1.7,0-3-0.1-3.9-0.1
		c-0.9-0.1-1.5-0.1-1.9-0.1c-0.1,0-0.5,0-1,0c-0.4,0-0.9,0-1.3,0l-0.4-0.2l0.2-0.2l0.7-0.1c0.4-0.1,0.5-0.5,0.6-1.1
		c0.1-0.9,0.1-2.6,0.1-4.6V98.6z"/>
	<path clip-path="url(#SVGID_2_)" fill="#003976" d="M308.8,108.3c-0.3-0.1-0.3-0.2-0.3-0.8c0-1.1,0.1-1.9,0.1-2.3l0.2-0.4l0.2,0.3
		l0.1,0.8c0.4,1.5,2,2.1,3.6,2.1c2.2,0,3.4-1.2,3.4-2.8c0-1.5-0.8-2.3-2.8-3.7l-1-0.7c-2.4-1.8-3.2-3.1-3.2-4.6c0-2.5,2-4,5-4
		c0.9,0,1.8,0.1,2.3,0.2c0.4,0.1,0.6,0.1,0.8,0.1l0.2,0.2c0,0.1-0.1,0.8-0.1,2.2c0,0.3,0,0.5-0.2,0.5l-0.2-0.3l-0.3-1.1
		c-0.2-0.3-0.9-1.1-2.9-1.1c-1.6,0-3,0.8-3,2.3c0,1.3,0.7,2.1,2.9,3.6l0.6,0.4c2.7,1.8,3.7,3.3,3.7,5.1c0,1.3-0.5,2.6-2.1,3.6
		c-0.9,0.6-2.3,0.7-3.6,0.7C311,108.8,309.7,108.7,308.8,108.3"/>
	<path clip-path="url(#SVGID_2_)" fill="#003976" d="M335.2,101.4c0,3.7,0.1,5.3,0.5,5.7c0.4,0.4,1.1,0.6,3.1,0.6
		c1.3,0,2.5,0,3.1-0.8c0.3-0.4,0.6-1,0.7-1.5l0.2-0.3l0.2,0.4c0,0.3-0.2,1.8-0.4,2.5c-0.2,0.6-0.3,0.7-1.6,0.7c-1.8,0-3.2,0-4.2-0.1
		c-1.1,0-1.9-0.1-2.6-0.1c-0.1,0-0.5,0-1.1,0c-0.5,0-1.1,0-1.5,0l-0.4-0.2l0.2-0.2l0.8-0.1c0.5-0.1,0.6-0.7,0.7-1.4
		c0.1-1.1,0.1-3,0.1-5.4v-4.4c0-3.9,0-4.6,0-5.4c0-0.8-0.3-1.2-1.1-1.4L331,90l-0.2-0.2l0.4-0.2c1.2,0,2.8,0.1,2.9,0.1
		c0.1,0,2-0.1,2.8-0.1l0.4,0.2L337,90l-0.8,0.1c-0.7,0.1-1,0.5-1,1.4c0,0.8,0,1.5,0,5.4V101.4z"/>
	<path clip-path="url(#SVGID_2_)" fill="#003976" d="M349.6,102.4c0,2.1,0,3.7,0.1,4.6c0.1,0.6,0.2,1,0.8,1.1c0.3,0.1,0.8,0.1,1,0.1
		l0.2,0.2l-0.4,0.2c-1.2,0-2.7-0.1-2.8-0.1c-0.1,0-1.5,0.1-2.2,0.1l-0.4-0.2l0.2-0.2l0.7-0.1c0.4-0.1,0.5-0.5,0.6-1.1
		c0.1-0.9,0.1-2.6,0.1-4.6v-3.8c0-3.3,0-3.9-0.1-4.6c-0.1-0.7-0.2-1.1-0.7-1.2l-0.7-0.1l-0.2-0.2l0.4-0.2c0.7,0,2.1,0.1,2.3,0.1
		c0.1,0,1.6-0.1,2.3-0.1l0.4,0.2l-0.2,0.2l-0.6,0.1c-0.6,0.1-0.7,0.4-0.8,1.2c0,0.7,0,1.3,0,4.6V102.4z"/>
	<path clip-path="url(#SVGID_2_)" fill="#003976" d="M374.4,105.8c0.1,0.8,0.2,1.9,1.2,2.2c0.6,0.2,1.2,0.2,1.5,0.2l0.2,0.1
		l-0.5,0.2c-0.5,0-3,0-3.8-0.1c-0.5-0.1-0.6-0.1-0.6-0.2l0.2-0.2c0.1,0,0.2-0.3,0.1-0.8l-1.1-10.8h-0.1l-5.4,10.9
		c-0.5,0.9-0.6,1.1-0.8,1.1c-0.2,0-0.3-0.2-0.8-1c-0.6-1.1-2.1-3.8-2.6-4.9c-0.7-1.3-2.5-4.9-2.9-5.8h-0.1l-0.9,9.6
		c0,0.3,0,0.7,0,1.1c0,0.3,0.2,0.5,0.5,0.6c0.4,0.1,0.7,0.1,0.9,0.1l0.2,0.1l-0.4,0.2c-0.8,0-1.9-0.1-2.1-0.1
		c-0.2,0-1.3,0.1-1.9,0.1l-0.4-0.2l0.2-0.1c0.2,0,0.3,0,0.7-0.1c0.7-0.1,0.8-0.9,0.9-1.7l1.6-13.9l0.3-0.4l0.5,0.3l6.8,13.2
		l6.6-13.2l0.3-0.3c0.2,0,0.3,0.2,0.3,0.6L374.4,105.8z"/>
	<path clip-path="url(#SVGID_2_)" fill="#003976" d="M383.2,102.4c0,2.1,0,3.7,0.1,4.6c0.1,0.6,0.2,1,0.8,1.1c0.3,0.1,0.8,0.1,1,0.1
		l0.2,0.2l-0.4,0.2c-1.2,0-2.7-0.1-2.8-0.1c-0.1,0-1.5,0.1-2.2,0.1l-0.4-0.2l0.2-0.2l0.7-0.1c0.4-0.1,0.5-0.5,0.6-1.1
		c0.1-0.9,0.1-2.6,0.1-4.6v-3.8c0-3.3,0-3.9-0.1-4.6c-0.1-0.7-0.2-1.1-0.7-1.2l-0.7-0.1l-0.2-0.2l0.3-0.2c0.7,0,2.2,0.1,2.3,0.1
		c0.1,0,1.6-0.1,2.3-0.1l0.4,0.2l-0.2,0.2l-0.6,0.1c-0.6,0.1-0.7,0.4-0.8,1.2c0,0.7,0,1.3,0,4.6V102.4z"/>
	<path clip-path="url(#SVGID_2_)" fill="#003976" d="M396,102.4c0,2.1,0,3.7,0.1,4.6c0.1,0.6,0.2,1,0.9,1.1l1,0.1l0.2,0.2l-0.4,0.2
		c-1.2,0-2.7-0.1-2.8-0.1c-0.1,0-1.7,0.1-2.3,0.1l-0.4-0.2l0.2-0.1l0.7-0.1c0.5-0.1,0.6-0.5,0.7-1.2c0.1-0.9,0.1-2.6,0.1-4.6v-9
		l-3.2,0c-1.4,0-2,0.2-2.3,0.7c-0.3,0.4-0.3,0.5-0.4,0.7l-0.2,0.2l-0.1-0.2l0.5-2.3l0.2-0.4c0.2,0,0.4,0.2,1,0.2
		c0.6,0.1,1.5,0.1,1.8,0.1h8.5c0.8,0,1.2-0.1,1.6-0.1c0.3,0,0.5-0.1,0.6-0.1l0.1,0.2c0,0.7-0.1,2.2-0.1,2.4l-0.2,0.3l-0.2-0.4l0-0.2
		c-0.1-0.6-0.6-1.1-2.7-1.2l-2.8,0V102.4z"/>
	<path clip-path="url(#SVGID_2_)" fill="#003976" d="M406.7,98.6c0-3.3,0-3.9-0.1-4.6c0-0.7-0.2-1.1-0.9-1.2l-0.8,0l-0.2-0.2
		l0.4-0.2c1,0,2.5,0.1,2.6,0.1c0.1,0,4.9,0,5.4,0c0.4,0,0.8-0.1,1-0.1l0.3-0.1l0.1,0.2c0,0.2-0.1,0.4-0.2,1l-0.1,1.4l-0.2,0.2
		l-0.2-0.3l-0.1-0.8c-0.2-0.3-0.4-0.5-1.6-0.6c-0.4,0-3-0.1-3.3-0.1l-0.1,0.2v5.8l0.1,0.2c0.3,0,3.3,0,3.8,0
		c0.5-0.1,0.9-0.1,1.1-0.3l0.3-0.3l0.1,0.2c0,0.1-0.1,0.5-0.2,1.2c0,0.4-0.1,1.2-0.1,1.4l-0.2,0.4l-0.1-0.2l-0.1-0.7
		c-0.1-0.3-0.3-0.5-1.2-0.6c-0.6-0.1-3-0.1-3.4-0.1l-0.1,0.2v1.8c0,0.7,0,3.2,0,3.6c0,1.4,0.5,1.7,2.7,1.7c0.6,0,1.7,0,2.3-0.2
		c0.6-0.2,0.9-0.6,1-1.5l0.2-0.3l0.1,0.3c0,0.1-0.2,1.6-0.3,2c-0.2,0.6-0.4,0.6-1.2,0.6c-1.7,0-3-0.1-3.9-0.1
		c-0.9-0.1-1.5-0.1-1.9-0.1c0,0-0.5,0-1,0c-0.5,0-1,0-1.3,0l-0.4-0.2l0.2-0.2l0.7-0.1c0.4-0.1,0.5-0.5,0.6-1.1
		c0.1-0.9,0.1-2.6,0.1-4.6V98.6z"/>
	<path clip-path="url(#SVGID_2_)" fill="#003976" d="M422.8,100.9c0,2.3,0,4.2,0,4.6c0,0.5,0.1,1.3,0.2,1.5c0.3,0.4,1.1,0.9,3.7,0.9
		c2.1,0,3.9-0.7,5.3-1.9c1.2-1.1,1.8-3.1,1.8-5.1c0-2.7-1.2-4.4-2.1-5.3c-2.1-2.1-4.6-2.4-7.3-2.4c-0.4,0-1.1,0.1-1.4,0.1l-0.3,0.4
		V100.9z M420.8,98.6c0-3.3,0-3.9-0.1-4.6c0-0.7-0.2-1.1-0.9-1.2l-0.8,0l-0.2-0.2l0.4-0.2c1,0,2.5,0.1,2.6,0.1c0.3,0,1.7-0.1,3-0.1
		c2.2,0,6.4-0.2,9,2.4c1.1,1.1,2.2,2.9,2.2,5.4c0,2.7-1.2,4.7-2.4,6c-1,1-3,2.5-6.8,2.5c-1,0-2.2-0.1-3.1-0.1
		c-1-0.1-1.7-0.1-1.8-0.1c0,0-0.5,0-0.9,0c-0.5,0-1,0-1.4,0l-0.4-0.2l0.2-0.2l0.7-0.1c0.4-0.1,0.5-0.5,0.6-1.1
		c0.1-0.9,0.1-2.6,0.1-4.6V98.6z"/>
</g>
<g>
	<defs>
		<path id="SVGID_3_" d="M6,44.6L6,44.6c1.7,50.8,28.6,85.1,72.8,101.7c44.1-16.6,71.1-50.8,72.7-101.7H6z"/>
	</defs>
	<clipPath id="SVGID_4_">
		<use xlink:href="#SVGID_3_"  overflow="visible"/>
	</clipPath>
	
		<linearGradient id="SVGID_5_" gradientUnits="userSpaceOnUse" x1="-47" y1="219" x2="-46" y2="219" gradientTransform="matrix(126.0443 126.0443 126.0443 -126.0443 -21664.1641 33559.9219)">
		<stop  offset="0" style="stop-color:#BCBEC0"/>
		<stop  offset="0.5" style="stop-color:#FFFFFF"/>
		<stop  offset="1" style="stop-color:#A7A9AC"/>
	</linearGradient>
	<polygon clip-path="url(#SVGID_4_)" fill="url(#SVGID_5_)" points="78.7,-28.2 202.3,95.4 78.7,219 -44.9,95.4 	"/>
</g>
<g>
	<defs>
		<rect id="SVGID_6_" x="-47" y="-54.8" width="483.1" height="273.8"/>
	</defs>
	<clipPath id="SVGID_7_">
		<use xlink:href="#SVGID_6_"  overflow="visible"/>
	</clipPath>
	<path clip-path="url(#SVGID_7_)" fill="#A7A9AC" d="M5.3,43.9l0.3,5.5L5.9,54l0.5,4.6L7.1,63l0.8,4.4l1,4.3l1.1,4.1l1.3,4.1
		l1.3,3.9l1.5,3.9l1.6,3.8l1.8,3.7l1.9,3.6l2.1,3.4l2.2,3.4l2.3,3.2l2.4,3.2l2.5,3l2.6,3l2.8,2.9l2.9,2.7l3,2.7l3.1,2.5l3.2,2.5
		l3.4,2.3l3.5,2.2l3.6,2.1l3.7,2.1l3.8,1.9l3.9,1.8l4,1.7l4.3,1.7v-0.7C34.6,129.7,7.7,95.4,6,44.6L5.3,43.9z"/>
	<path clip-path="url(#SVGID_7_)" fill="#A7A9AC" d="M152.2,43.9H5.4l0.7,0.7h145.4c-1.6,50.8-28.6,85.1-72.7,101.7v0.7l4.3-1.7
		l4-1.7l3.9-1.8l3.8-1.9l3.7-2.1l3.6-2.1l3.5-2.2l3.4-2.3l3.3-2.5l3.1-2.5l3-2.7l2.9-2.7l2.8-2.9l2.7-3l2.5-3l2.4-3.2l2.3-3.2
		l2.1-3.4l2.1-3.4L140,95l1.8-3.7l1.6-3.8l1.5-3.9l1.3-3.9l1.2-4.1l1.1-4.1l1-4.3l0.8-4.4l0.6-4.5l0.5-4.6l0.4-4.6L152.2,43.9z"/>
	<polygon clip-path="url(#SVGID_7_)" fill="#A7A9AC" points="13.9,44.6 14,47.3 14.3,51.3 14.6,55.2 15.1,59.1 15.6,62.9 16.3,66.6 
		17.1,70.4 17.9,73.9 19,77.5 20.1,80.9 21.3,84.3 22.7,87.7 24.1,90.9 25.7,94 27.4,97.2 29.3,100.2 31.2,103.1 33.3,105.9 
		35.5,108.7 37.8,111.4 40.2,114 42.9,116.6 45.6,119 48.5,121.4 51.5,123.7 54.6,125.9 57.8,128 61.2,130.1 64.8,132 68.5,133.9 
		72.4,135.6 76.6,137.5 80.8,135.6 84.6,133.9 88.4,132 91.9,130.1 95.3,128 98.6,125.9 101.8,123.7 104.7,121.4 107.6,119 
		110.3,116.6 112.9,114 115.4,111.4 117.7,108.7 119.9,105.9 122,103.1 124,100.2 125.8,97.2 127.5,94 129.1,90.9 130.6,87.7 
		131.9,84.3 133.1,80.9 134.2,77.5 135.2,73.9 136.1,70.4 136.9,66.6 137.6,62.9 138.1,59.1 138.6,55.2 138.9,51.3 139.2,47.3 
		139.3,44.6 	"/>
</g>
<g>
	<defs>
		<path id="SVGID_8_" d="M16.6,7.3L16.6,7.3l0.1,33.8c1,43.6,19,76.1,62,93.5c43-17.4,61-49.9,62-93.5l0.1-33.8v0H16.6z"/>
	</defs>
	<clipPath id="SVGID_9_">
		<use xlink:href="#SVGID_8_"  overflow="visible"/>
	</clipPath>
	
		<linearGradient id="SVGID_10_" gradientUnits="userSpaceOnUse" x1="-47" y1="219" x2="-46" y2="219" gradientTransform="matrix(120.7952 120.7952 120.7952 -120.7952 -20758.3652 32142.1289)">
		<stop  offset="0" style="stop-color:#BCBEC0"/>
		<stop  offset="0.5" style="stop-color:#FFFFFF"/>
		<stop  offset="1" style="stop-color:#A7A9AC"/>
	</linearGradient>
	<polygon clip-path="url(#SVGID_9_)" fill="url(#SVGID_10_)" points="78.7,-54.8 204.5,70.9 78.7,196.7 -47,70.9 	"/>
</g>
<g>
	<defs>
		<rect id="SVGID_11_" x="-47" y="-54.8" width="483.1" height="273.8"/>
	</defs>
	<clipPath id="SVGID_12_">
		<use xlink:href="#SVGID_11_"  overflow="visible"/>
	</clipPath>
	<path clip-path="url(#SVGID_12_)" fill="#A7A9AC" d="M132,14.6L23,13.3l-1.5,1.3v24.6c-0.3,39.8,15,72.2,55.3,88.8
		c40.3-16.6,55.5-49,55.2-88.8V14.6z"/>
	<path clip-path="url(#SVGID_12_)" fill="#003976" d="M134.1,13.3H23.6v24.6c-0.3,39.7,14.9,72.2,55.3,88.8
		c40.2-16.5,55.5-49,55.2-88.8V13.3z"/>
	<path clip-path="url(#SVGID_12_)" d="M57.7,56.4L32.2,68.6l-2.6,2.5l0.5,1.9c6.8-3.2,14.1-5.7,21.6-7.4V90l-2.3-5l-2.6,2.5v3.2
		c3.2,4.7,6.8,8.8,10.9,12.4V56.4z M57.7,26.7v28.1l-6,3V30.2h-9.3v-1.7l2.5-2.5L57.7,26.7z M57.7,54.9V26.7l15.3,0.9l-2.5,2.5H70
		h-9v21l1.6-1l0.9,0.4L61,53.2L57.7,54.9z M97.1,57.5l-21-10l-18.5,8.9v46.8c2.5,2.3,5.3,4.5,8.3,6.5l2.6-2.5l-7.6-6.9V63.9
		c4.9-0.7,10-1.1,15.2-1.1c5.1,0,10.2,0.4,15.1,1.1l0,39.7l-1.5,1.2l-0.9,0.1l-2.6,2.6v2.2c4.1-2.8,7.6-5.7,10.8-8.9V57.5z
		 M97.1,56.2l-5.9-3v-23h-9.3v-1.7l2.5-2.5l12.7,0.8V56.2z M97.1,100.7c2.8-2.7,5.2-5.7,7.7-8.9l3.4-7.1l-2.7,2.4
		c-1.6,2.6-3.1,4.8-5,7.2V65.6c7.5,1.7,14.8,4.2,21.6,7.4l2.6-2.5l-27.6-13V100.7z M103.1,55.4l-2.6,2.5l-3.4-1.7V26.7l15.3,0.9
		l-2.6,2.5v0h-9.4v21.9l1.7,1.5L103.1,55.4z"/>
</g>
<g>
	<defs>
		<path id="SVGID_13_" d="M58.9,55L32.1,68.6l0.5,1.9c6.9-3.2,14.1-5.7,21.7-7.4v28.9c-1.2-1.5-2.3-3-3.4-4.6L49.4,85v3.2
			c2.9,4.2,6,7.9,9.5,11.3c2.9,2.7,6.1,5.3,9.6,7.7V105c-1.8-1.2-3.5-2.5-5-3.9V61.4c5-0.7,10.1-1.1,15.2-1.1
			c5.1,0,10.1,0.4,15.1,1.1L93.8,101c-1.5,1.4-3.2,2.6-4.9,3.8v2.2c3.1-2.1,6.4-4.7,9.5-7.5c3.8-3.5,7.3-7.4,9.6-11.4v-3.4l-2.1,3.6
			c-0.9,1.2-1.9,2.4-2.8,3.6V63.1c7.5,1.7,14.7,4.2,21.6,7.4l0.6-1.9L98.4,55.1L78.7,45L58.9,55z M58.9,25.9H45v1.7h9.4v27.7
			l4.6-2.3l4.6-2.3v-23h9.4v-1.7H58.9z M98.4,25.9h-14v1.7h9.4v23l4.6,2.3l4.7,2.3V27.6h9.3v-1.7H98.4z"/>
	</defs>
	<clipPath id="SVGID_14_">
		<use xlink:href="#SVGID_13_"  overflow="visible"/>
	</clipPath>
	
		<linearGradient id="SVGID_15_" gradientUnits="userSpaceOnUse" x1="-47" y1="219" x2="-46" y2="219" gradientTransform="matrix(85.3592 85.3592 85.3592 -85.3592 -14645.8896 22729.2559)">
		<stop  offset="0" style="stop-color:#BCBEC0"/>
		<stop  offset="0.5" style="stop-color:#FFFFFF"/>
		<stop  offset="1" style="stop-color:#A7A9AC"/>
	</linearGradient>
	<polygon clip-path="url(#SVGID_14_)" fill="url(#SVGID_15_)" points="78.7,-20.7 165.9,66.5 78.7,153.7 -8.5,66.5 	"/>
</g>
</svg>
